<svg width="40" height="40" viewBox="0 0 40 40" fill="none" xmlns="http://www.w3.org/2000/svg">
<g id="back">
<path id="Vector" fill-rule="evenodd" clip-rule="evenodd" d="M22.7068 26.6947C22.5193 26.8822 22.265 26.9875 21.9998 26.9875C21.7346 26.9875 21.4803 26.8822 21.2928 26.6947L15.2928 20.6947C15.1053 20.5072 15 20.2529 15 19.9877C15 19.7225 15.1053 19.4682 15.2928 19.2807L21.2928 13.2807C21.4814 13.0986 21.734 12.9978 21.9962 13C22.2584 13.0023 22.5092 13.1075 22.6946 13.2929C22.88 13.4783 22.9852 13.7291 22.9875 13.9913C22.9897 14.2535 22.8889 14.5061 22.7068 14.6947L18.4138 18.9877H29.9998C30.265 18.9877 30.5194 19.0931 30.7069 19.2806C30.8944 19.4681 30.9998 19.7225 30.9998 19.9877C30.9998 20.2529 30.8944 20.5073 30.7069 20.6948C30.5194 20.8824 30.265 20.9877 29.9998 20.9877H18.4138L22.7068 25.2807C22.8943 25.4682 22.9996 25.7225 22.9996 25.9877C22.9996 26.2529 22.8943 26.5072 22.7068 26.6947Z" fill="black"/>
</g>
</svg>
