<svg width="88" height="94" viewBox="0 0 88 94" fill="none" xmlns="http://www.w3.org/2000/svg">
<path d="M53 62H68L63.785 57.785C63.219 57.2188 62.77 56.5467 62.4637 55.807C62.1574 55.0674 61.9999 54.2746 62 53.474V44C62.0005 40.2768 60.8467 36.645 58.6977 33.6047C56.5487 30.5643 53.51 28.2649 50 27.023V26C50 24.4087 49.3679 22.8826 48.2426 21.7574C47.1174 20.6321 45.5913 20 44 20C42.4087 20 40.8826 20.6321 39.7574 21.7574C38.6321 22.8826 38 24.4087 38 26V27.023C31.01 29.495 26 36.164 26 44V53.477C26 55.091 25.358 56.642 24.215 57.785L20 62H35M53 62V65C53 67.3869 52.0518 69.6761 50.364 71.364C48.6761 73.0518 46.3869 74 44 74C41.6131 74 39.3239 73.0518 37.636 71.364C35.9482 69.6761 35 67.3869 35 65V62M53 62H35H53Z" fill="#EDF0F3"/>
<path d="M53 62H68L63.785 57.785C63.219 57.2188 62.77 56.5467 62.4637 55.807C62.1574 55.0674 61.9999 54.2746 62 53.474V44C62.0005 40.2768 60.8467 36.645 58.6977 33.6047C56.5487 30.5643 53.51 28.2649 50 27.023V26C50 24.4087 49.3679 22.8826 48.2426 21.7574C47.1174 20.6321 45.5913 20 44 20C42.4087 20 40.8826 20.6321 39.7574 21.7574C38.6321 22.8826 38 24.4087 38 26V27.023C31.01 29.495 26 36.164 26 44V53.477C26 55.091 25.358 56.642 24.215 57.785L20 62H35M53 62V65C53 67.3869 52.0518 69.6761 50.364 71.364C48.6761 73.0518 46.3869 74 44 74C41.6131 74 39.3239 73.0518 37.636 71.364C35.9482 69.6761 35 67.3869 35 65V62M53 62H35" stroke="#CED6E0" stroke-width="4" stroke-linecap="round" stroke-linejoin="round"/>
</svg>
