<svg width="25" height="30" viewBox="0 0 25 30" fill="none" xmlns="http://www.w3.org/2000/svg">
<path d="M11.1689 0.871094C12.8035 0.871094 14.1289 2.19648 14.1289 3.83105V25.7959C14.1287 27.6366 12.6366 29.1287 10.7959 29.1289H5.5166C3.31573 29.1287 1.71915 27.0333 2.30273 24.9111L8.31543 3.0459C8.66867 1.76139 9.83679 0.871294 11.1689 0.871094Z" fill="white" stroke="#0D2B6C" stroke-width="1.74188"/>
<path d="M16.1689 0.871094C17.8035 0.871094 19.1289 2.19648 19.1289 3.83105V25.7959C19.1287 27.6366 17.6366 29.1287 15.7959 29.1289H10.5166C8.31573 29.1287 6.71915 27.0333 7.30273 24.9111L13.3154 3.0459C13.6687 1.76139 14.8368 0.871294 16.1689 0.871094Z" fill="white" stroke="#0D2B6C" stroke-width="1.74188"/>
<path d="M21.1689 0.871094C22.8035 0.871094 24.1289 2.19648 24.1289 3.83105V25.7959C24.1287 27.6366 22.6366 29.1287 20.7959 29.1289H15.5166C13.3157 29.1287 11.7191 27.0333 12.3027 24.9111L18.3154 3.0459C18.6687 1.76139 19.8368 0.871294 21.1689 0.871094Z" fill="#0D2B6C" stroke="#0D2B6C" stroke-width="1.74188"/>
</svg>
