<svg width="148" height="36" viewBox="0 0 148 36" fill="none" xmlns="http://www.w3.org/2000/svg">
<path d="M34.8 26V9.32H37.536V26H34.8ZM50.7521 22.304C50.7521 24.536 48.8081 26.216 45.6881 26.216C42.5201 26.216 40.2881 24.344 40.1681 21.944H43.0001C43.0961 23.024 44.1281 23.912 45.6401 23.912C47.2241 23.912 48.0641 23.24 48.0641 22.328C48.0641 19.736 40.3841 21.224 40.3841 16.376C40.3841 14.264 42.3521 12.56 45.4721 12.56C48.4721 12.56 50.4401 14.168 50.5841 16.808H47.8481C47.7521 15.656 46.8641 14.864 45.3761 14.864C43.9121 14.864 43.1441 15.464 43.1441 16.352C43.1441 19.016 50.6081 17.528 50.7521 22.304ZM63.3324 22.304C63.3324 24.536 61.3884 26.216 58.2684 26.216C55.1004 26.216 52.8684 24.344 52.7484 21.944H55.5804C55.6764 23.024 56.7084 23.912 58.2204 23.912C59.8044 23.912 60.6444 23.24 60.6444 22.328C60.6444 19.736 52.9644 21.224 52.9644 16.376C52.9644 14.264 54.9324 12.56 58.0524 12.56C61.0524 12.56 63.0204 14.168 63.1644 16.808H60.4284C60.3324 15.656 59.4444 14.864 57.9564 14.864C56.4924 14.864 55.7244 15.464 55.7244 16.352C55.7244 19.016 63.1884 17.528 63.3324 22.304ZM78.0248 12.776V26H75.2888V24.416C74.4248 25.544 72.9368 26.192 71.3768 26.192C68.2808 26.192 65.9288 24.248 65.9288 20.552V12.776H68.6408V20.144C68.6408 22.568 69.9608 23.816 71.9528 23.816C73.9688 23.816 75.2888 22.568 75.2888 20.144V12.776H78.0248ZM86.9627 14.864C85.1147 14.864 83.6267 16.112 83.3387 18.2H90.6587C90.6107 16.16 89.0027 14.864 86.9627 14.864ZM93.1547 22.064C92.4107 24.368 90.3227 26.216 87.0827 26.216C83.2907 26.216 80.4827 23.528 80.4827 19.376C80.4827 15.224 83.1707 12.56 87.0827 12.56C90.8507 12.56 93.5147 15.176 93.5147 19.064C93.5147 19.52 93.4907 19.952 93.4187 20.408H83.3147C83.5067 22.592 85.0667 23.912 87.0827 23.912C88.7627 23.912 89.6987 23.096 90.2027 22.064H93.1547ZM95.9672 26V9.32H105.783V11.552H98.7032V16.472H104.223V18.704H98.7032V26H95.9672ZM108.079 26V8.24H110.815V26H108.079ZM126.767 19.376C126.767 23.528 123.695 26.216 119.903 26.216C116.135 26.216 113.279 23.528 113.279 19.376C113.279 15.224 116.255 12.56 120.023 12.56C123.791 12.56 126.767 15.224 126.767 19.376ZM116.063 19.376C116.063 22.376 117.839 23.84 119.903 23.84C121.943 23.84 123.959 22.376 123.959 19.376C123.959 16.376 122.015 14.936 119.975 14.936C117.911 14.936 116.063 16.376 116.063 19.376ZM131.8 26L127.672 12.776H130.456L133.216 23.408L136.024 12.776H138.88L141.568 23.36L144.304 12.776H146.992L142.888 26H140.008L137.344 16.232L134.68 26H131.8Z" fill="#103482"/>
<path d="M11.1689 3.87109C12.8035 3.87109 14.1289 5.19648 14.1289 6.83105V28.7959C14.1287 30.6366 12.6366 32.1287 10.7959 32.1289H5.5166C3.31573 32.1287 1.71915 30.0333 2.30273 27.9111L8.31543 6.0459C8.66867 4.76139 9.83679 3.87129 11.1689 3.87109Z" fill="white" stroke="#0D2B6C" stroke-width="1.74188"/>
<path d="M16.1689 3.87109C17.8035 3.87109 19.1289 5.19648 19.1289 6.83105V28.7959C19.1287 30.6366 17.6366 32.1287 15.7959 32.1289H10.5166C8.31573 32.1287 6.71915 30.0333 7.30273 27.9111L13.3154 6.0459C13.6687 4.76139 14.8368 3.87129 16.1689 3.87109Z" fill="white" stroke="#0D2B6C" stroke-width="1.74188"/>
<path d="M21.1689 3.87109C22.8035 3.87109 24.1289 5.19648 24.1289 6.83105V28.7959C24.1287 30.6366 22.6366 32.1287 20.7959 32.1289H15.5166C13.3157 32.1287 11.7191 30.0333 12.3027 27.9111L18.3154 6.0459C18.6687 4.76139 19.8368 3.87129 21.1689 3.87109Z" fill="#0D2B6C" stroke="#0D2B6C" stroke-width="1.74188"/>
</svg>
