<svg width="24" height="24" viewBox="0 0 24 24" fill="none" xmlns="http://www.w3.org/2000/svg">
<path fill-rule="evenodd" clip-rule="evenodd" d="M6.24997 3.49978C3.49997 3.49978 3.49997 3.70778 3.49997 6.24978V6.27478C3.49997 7.38178 3.49997 8.18178 3.77097 8.51978C4.03597 8.84778 4.82297 8.99978 6.24997 8.99978C7.67697 8.99978 8.46397 8.84678 8.72897 8.51878C8.99997 8.18178 8.99997 7.38178 8.99997 6.27378C8.99997 3.70778 8.99997 3.49978 6.24997 3.49978ZM6.24998 10.4999C4.56398 10.4999 3.29898 10.3229 2.60398 9.45992C1.99998 8.71092 1.99998 7.68892 1.99998 6.27492L2.74998 6.24992H1.99998C1.99998 3.37992 2.18098 1.99992 6.24998 1.99992C10.319 1.99992 10.5 3.37992 10.5 6.24992C10.5 7.68792 10.5 8.71092 9.89598 9.45992C9.20098 10.3229 7.93598 10.4999 6.24998 10.4999Z" fill="#103482"/>
<path fill-rule="evenodd" clip-rule="evenodd" d="M17.25 3.49964C14.5 3.49964 14.5 3.70764 14.5 6.24964V6.27464C14.5 7.38164 14.5 8.18164 14.771 8.51964C15.036 8.84764 15.823 8.99964 17.25 8.99964C18.677 8.99964 19.464 8.84664 19.729 8.51864C20 8.18164 20 7.38164 20 6.27364C20 3.70764 20 3.49964 17.25 3.49964ZM17.25 10.4998C15.564 10.4998 14.299 10.3228 13.604 9.45978C13 8.71078 13 7.68878 13 6.27478L13.75 6.24978H13C13 3.37978 13.181 1.99978 17.25 1.99978C21.319 1.99978 21.5 3.37978 21.5 6.24978C21.5 7.68778 21.5 8.71078 20.896 9.45978C20.201 10.3228 18.936 10.4998 17.25 10.4998Z" fill="#103482"/>
<path fill-rule="evenodd" clip-rule="evenodd" d="M6.24996 14.4996C3.49996 14.4996 3.49996 14.7076 3.49996 17.2496V17.2746C3.49996 18.3816 3.49996 19.1816 3.77096 19.5196C4.03596 19.8476 4.82296 19.9996 6.24996 19.9996C7.67696 19.9996 8.46396 19.8466 8.72896 19.5186C8.99996 19.1816 8.99996 18.3816 8.99996 17.2736C8.99996 14.7076 8.99996 14.4996 6.24996 14.4996ZM6.24997 21.4997C4.56397 21.4997 3.29897 21.3227 2.60397 20.4597C1.99997 19.7107 1.99997 18.6887 1.99997 17.2747L2.74997 17.2497H1.99997C1.99997 14.3797 2.18097 12.9997 6.24997 12.9997C10.319 12.9997 10.5 14.3797 10.5 17.2497C10.5 18.6877 10.5 19.7107 9.89597 20.4597C9.20097 21.3227 7.93597 21.4997 6.24997 21.4997Z" fill="#103482"/>
<path fill-rule="evenodd" clip-rule="evenodd" d="M17.25 14.4996C14.5 14.4996 14.5 14.7076 14.5 17.2496V17.2746C14.5 18.3816 14.5 19.1816 14.771 19.5196C15.036 19.8476 15.823 19.9996 17.25 19.9996C18.677 19.9996 19.464 19.8466 19.729 19.5186C20 19.1816 20 18.3816 20 17.2736C20 14.7076 20 14.4996 17.25 14.4996ZM17.25 21.4997C15.564 21.4997 14.299 21.3227 13.604 20.4597C13 19.7107 13 18.6887 13 17.2747L13.75 17.2497H13C13 14.3797 13.181 12.9997 17.25 12.9997C21.319 12.9997 21.5 14.3797 21.5 17.2497C21.5 18.6877 21.5 19.7107 20.896 20.4597C20.201 21.3227 18.936 21.4997 17.25 21.4997Z" fill="#103482"/>
</svg>
