<svg width="40" height="40" viewBox="0 0 40 40" fill="none" xmlns="http://www.w3.org/2000/svg">
<circle cx="20" cy="20" r="19.5" stroke="#081A41"/>
<path fill-rule="evenodd" clip-rule="evenodd" d="M14.2928 14.3053C14.4803 14.1178 14.7346 14.0125 14.9998 14.0125C15.265 14.0125 15.5193 14.1178 15.7068 14.3053L19.9998 18.5983L24.2928 14.3053C24.385 14.2098 24.4954 14.1336 24.6174 14.0812C24.7394 14.0288 24.8706 14.0012 25.0034 14C25.1362 13.9989 25.2678 14.0242 25.3907 14.0745C25.5136 14.1247 25.6253 14.199 25.7192 14.2929C25.8131 14.3868 25.8873 14.4984 25.9376 14.6213C25.9879 14.7442 26.0132 14.8759 26.012 15.0087C26.0109 15.1415 25.9833 15.2727 25.9309 15.3947C25.8785 15.5167 25.8023 15.627 25.7068 15.7193L21.4138 20.0123L25.7068 24.3053C25.8889 24.4939 25.9897 24.7465 25.9875 25.0087C25.9852 25.2709 25.88 25.5217 25.6946 25.7071C25.5092 25.8925 25.2584 25.9977 24.9962 26C24.734 26.0022 24.4814 25.9014 24.2928 25.7193L19.9998 21.4263L15.7068 25.7193C15.5182 25.9014 15.2656 26.0022 15.0034 26C14.7412 25.9977 14.4904 25.8925 14.305 25.7071C14.1196 25.5217 14.0144 25.2709 14.0121 25.0087C14.0098 24.7465 14.1106 24.4939 14.2928 24.3053L18.5858 20.0123L14.2928 15.7193C14.1053 15.5318 14 15.2775 14 15.0123C14 14.7471 14.1053 14.4928 14.2928 14.3053Z" fill="#081A41"/>
</svg>
