<svg width="24" height="24" viewBox="0 0 24 24" fill="currentColor" xmlns="http://www.w3.org/2000/svg">
<path fill-rule="evenodd" clip-rule="evenodd" d="M5.94434 4.92117C9.09665 1.78383 13.9435 1.10479 17.8369 3.2571C21.7347 5.41188 23.7371 9.88505 22.749 14.2278C21.7608 18.5706 18.0197 21.7365 13.5732 21.9925C9.12671 22.2484 5.04641 19.5331 3.56641 15.3323C3.38294 14.8114 3.65687 14.2404 4.17773 14.0569C4.69852 13.8734 5.26947 14.1466 5.45312 14.6673C6.6371 18.0278 9.90089 20.201 13.458 19.9964C17.0152 19.7916 20.0082 17.2587 20.7988 13.7844C21.5894 10.3102 19.9874 6.73197 16.8691 5.00808C13.7508 3.28422 9.86831 3.83055 7.34668 6.34792C7.33967 6.35492 7.33241 6.36165 7.3252 6.36843L4.47461 9.00027H8C8.55228 9.00027 9 9.44798 9 10.0003C8.99982 10.5524 8.55217 11.0003 8 11.0003H2C1.44783 11.0003 1.00018 10.5524 1 10.0003V4.00027C1 3.44798 1.44772 3.00027 2 3.00027C2.55228 3.00027 3 3.44798 3 4.00027V7.63894L5.94434 4.92117ZM12 6.00027C12.5523 6.00027 13 6.44798 13 7.00027V12.5862L15.707 15.2932C16.0974 15.6838 16.0975 16.3168 15.707 16.7073C15.3165 17.0976 14.6835 17.0976 14.293 16.7073L11.293 13.7073C11.1055 13.5198 11.0001 13.2654 11 13.0003V7.00027C11 6.44798 11.4477 6.00027 12 6.00027Z" fill="currentColor" />
</svg>
