<svg width="235" height="60" viewBox="0 0 235 60" fill="none" xmlns="http://www.w3.org/2000/svg">
<path d="M14.2969 11.915C16.3891 11.9151 18.085 13.6109 18.085 15.7031V43.8184C18.0848 46.1747 16.1748 48.0849 13.8184 48.085H7.06152C4.24427 48.0849 2.20025 45.403 2.94727 42.6865L10.6445 14.6982C11.0968 13.0541 12.5916 11.915 14.2969 11.915Z" fill="white" stroke="#0D2B6C" stroke-width="2.22961"/>
<path d="M20.6968 11.915C22.789 11.9151 24.4849 13.6109 24.4849 15.7031V43.8184C24.4847 46.1747 22.5747 48.0849 20.2183 48.085H13.4614C10.6442 48.0849 8.60015 45.403 9.34717 42.6865L17.0444 14.6982C17.4967 13.0541 18.9915 11.915 20.6968 11.915Z" fill="white" stroke="#0D2B6C" stroke-width="2.22961"/>
<path d="M27.0969 11.915C29.1892 11.9151 30.885 13.6109 30.885 15.7031V43.8184C30.8848 46.1747 28.9748 48.0849 26.6184 48.085H19.8616C17.0443 48.0849 15.0003 45.403 15.7473 42.6865L23.4446 14.6982C23.8969 13.0541 25.3916 11.915 27.0969 11.915Z" fill="#0D2B6C" stroke="#0D2B6C" stroke-width="2.22961"/>
<path d="M51.56 16.2V44H47V16.2H51.56ZM65.1469 44.36C63.4135 44.36 61.8535 44.0533 60.4669 43.44C59.1069 42.8 58.0269 41.9467 57.2269 40.88C56.4269 39.7867 56.0002 38.5733 55.9469 37.24H60.6669C60.7469 38.1733 61.1869 38.96 61.9869 39.6C62.8135 40.2133 63.8402 40.52 65.0669 40.52C66.3469 40.52 67.3335 40.28 68.0269 39.8C68.7469 39.2933 69.1069 38.6533 69.1069 37.88C69.1069 37.0533 68.7069 36.44 67.9069 36.04C67.1335 35.64 65.8935 35.2 64.1869 34.72C62.5335 34.2667 61.1869 33.8267 60.1469 33.4C59.1069 32.9733 58.2002 32.32 57.4269 31.44C56.6802 30.56 56.3069 29.4 56.3069 27.96C56.3069 26.7867 56.6535 25.72 57.3469 24.76C58.0402 23.7733 59.0269 23 60.3069 22.44C61.6135 21.88 63.1069 21.6 64.7869 21.6C67.2935 21.6 69.3069 22.24 70.8269 23.52C72.3735 24.7733 73.2002 26.4933 73.3069 28.68H68.7469C68.6669 27.6933 68.2669 26.9067 67.5469 26.32C66.8269 25.7333 65.8535 25.44 64.6269 25.44C63.4269 25.44 62.5069 25.6667 61.8669 26.12C61.2269 26.5733 60.9069 27.1733 60.9069 27.92C60.9069 28.5067 61.1202 29 61.5469 29.4C61.9735 29.8 62.4935 30.12 63.1069 30.36C63.7202 30.5733 64.6269 30.8533 65.8269 31.2C67.4269 31.6267 68.7335 32.0667 69.7469 32.52C70.7869 32.9467 71.6802 33.5867 72.4269 34.44C73.1735 35.2933 73.5602 36.4267 73.5869 37.84C73.5869 39.0933 73.2402 40.2133 72.5469 41.2C71.8535 42.1867 70.8669 42.96 69.5869 43.52C68.3335 44.08 66.8535 44.36 65.1469 44.36ZM86.1141 44.36C84.3807 44.36 82.8207 44.0533 81.4341 43.44C80.0741 42.8 78.9941 41.9467 78.1941 40.88C77.3941 39.7867 76.9674 38.5733 76.9141 37.24H81.6341C81.7141 38.1733 82.1541 38.96 82.9541 39.6C83.7807 40.2133 84.8074 40.52 86.0341 40.52C87.3141 40.52 88.3007 40.28 88.9941 39.8C89.7141 39.2933 90.0741 38.6533 90.0741 37.88C90.0741 37.0533 89.6741 36.44 88.8741 36.04C88.1007 35.64 86.8607 35.2 85.1541 34.72C83.5007 34.2667 82.1541 33.8267 81.1141 33.4C80.0741 32.9733 79.1674 32.32 78.3941 31.44C77.6474 30.56 77.2741 29.4 77.2741 27.96C77.2741 26.7867 77.6207 25.72 78.3141 24.76C79.0074 23.7733 79.9941 23 81.2741 22.44C82.5807 21.88 84.0741 21.6 85.7541 21.6C88.2607 21.6 90.2741 22.24 91.7941 23.52C93.3407 24.7733 94.1674 26.4933 94.2741 28.68H89.7141C89.6341 27.6933 89.2341 26.9067 88.5141 26.32C87.7941 25.7333 86.8207 25.44 85.5941 25.44C84.3941 25.44 83.4741 25.6667 82.8341 26.12C82.1941 26.5733 81.8741 27.1733 81.8741 27.92C81.8741 28.5067 82.0874 29 82.5141 29.4C82.9407 29.8 83.4607 30.12 84.0741 30.36C84.6874 30.5733 85.5941 30.8533 86.7941 31.2C88.3941 31.6267 89.7007 32.0667 90.7141 32.52C91.7541 32.9467 92.6474 33.5867 93.3941 34.44C94.1407 35.2933 94.5274 36.4267 94.5541 37.84C94.5541 39.0933 94.2074 40.2133 93.5141 41.2C92.8207 42.1867 91.8341 42.96 90.5541 43.52C89.3007 44.08 87.8207 44.36 86.1141 44.36ZM119.041 21.96V44H114.481V41.4C113.761 42.3067 112.815 43.0267 111.641 43.56C110.495 44.0667 109.268 44.32 107.961 44.32C106.228 44.32 104.668 43.96 103.281 43.24C101.921 42.52 100.841 41.4533 100.041 40.04C99.2679 38.6267 98.8812 36.92 98.8812 34.92V21.96H103.401V34.24C103.401 36.2133 103.895 37.7333 104.881 38.8C105.868 39.84 107.215 40.36 108.921 40.36C110.628 40.36 111.975 39.84 112.961 38.8C113.975 37.7333 114.481 36.2133 114.481 34.24V21.96H119.041ZM144.858 32.44C144.858 33.2667 144.804 34.0133 144.698 34.68H127.858C127.991 36.44 128.644 37.8533 129.818 38.92C130.991 39.9867 132.431 40.52 134.138 40.52C136.591 40.52 138.324 39.4933 139.338 37.44H144.258C143.591 39.4667 142.378 41.1333 140.618 42.44C138.884 43.72 136.724 44.36 134.138 44.36C132.031 44.36 130.138 43.8933 128.458 42.96C126.804 42 125.498 40.6667 124.538 38.96C123.604 37.2267 123.138 35.2267 123.138 32.96C123.138 30.6933 123.591 28.7067 124.498 27C125.431 25.2667 126.724 23.9333 128.378 23C130.058 22.0667 131.978 21.6 134.138 21.6C136.218 21.6 138.071 22.0533 139.698 22.96C141.324 23.8667 142.591 25.1467 143.498 26.8C144.404 28.4267 144.858 30.3067 144.858 32.44ZM140.098 31C140.071 29.32 139.471 27.9733 138.298 26.96C137.124 25.9467 135.671 25.44 133.938 25.44C132.364 25.44 131.018 25.9467 129.898 26.96C128.778 27.9467 128.111 29.2933 127.898 31H140.098ZM165.305 16.2V19.92H153.505V28.12H162.705V31.84H153.505V44H148.945V16.2H165.305ZM173.691 14.4V44H169.131V14.4H173.691ZM188.838 44.36C186.758 44.36 184.878 43.8933 183.198 42.96C181.518 42 180.198 40.6667 179.238 38.96C178.278 37.2267 177.798 35.2267 177.798 32.96C177.798 30.72 178.291 28.7333 179.278 27C180.265 25.2667 181.611 23.9333 183.318 23C185.025 22.0667 186.931 21.6 189.038 21.6C191.145 21.6 193.051 22.0667 194.758 23C196.465 23.9333 197.811 25.2667 198.798 27C199.785 28.7333 200.278 30.72 200.278 32.96C200.278 35.2 199.771 37.1867 198.758 38.92C197.745 40.6533 196.358 42 194.598 42.96C192.865 43.8933 190.945 44.36 188.838 44.36ZM188.838 40.4C190.011 40.4 191.105 40.12 192.118 39.56C193.158 39 193.998 38.16 194.638 37.04C195.278 35.92 195.598 34.56 195.598 32.96C195.598 31.36 195.291 30.0133 194.678 28.92C194.065 27.8 193.251 26.96 192.238 26.4C191.225 25.84 190.131 25.56 188.958 25.56C187.785 25.56 186.691 25.84 185.678 26.4C184.691 26.96 183.905 27.8 183.318 28.92C182.731 30.0133 182.438 31.36 182.438 32.96C182.438 35.3333 183.038 37.1733 184.238 38.48C185.465 39.76 186.998 40.4 188.838 40.4ZM233.986 21.96L227.146 44H222.346L217.906 27.72L213.466 44H208.666L201.786 21.96H206.426L211.026 39.68L215.706 21.96H220.466L224.946 39.6L229.506 21.96H233.986Z" fill="#0D2B6C"/>
</svg>
