<svg width="281" height="46" viewBox="0 0 281 46" fill="none" xmlns="http://www.w3.org/2000/svg">
<path d="M7.34 3.3V45H0.5V3.3H7.34ZM27.7203 45.54C25.1203 45.54 22.7803 45.08 20.7003 44.16C18.6603 43.2 17.0403 41.92 15.8403 40.32C14.6403 38.68 14.0003 36.86 13.9203 34.86H21.0003C21.1203 36.26 21.7803 37.44 22.9803 38.4C24.2203 39.32 25.7603 39.78 27.6003 39.78C29.5203 39.78 31.0003 39.42 32.0403 38.7C33.1203 37.94 33.6603 36.98 33.6603 35.82C33.6603 34.58 33.0603 33.66 31.8603 33.06C30.7003 32.46 28.8403 31.8 26.2803 31.08C23.8003 30.4 21.7803 29.74 20.2203 29.1C18.6603 28.46 17.3003 27.48 16.1403 26.16C15.0203 24.84 14.4603 23.1 14.4603 20.94C14.4603 19.18 14.9803 17.58 16.0203 16.14C17.0603 14.66 18.5403 13.5 20.4603 12.66C22.4203 11.82 24.6603 11.4 27.1803 11.4C30.9403 11.4 33.9603 12.36 36.2403 14.28C38.5603 16.16 39.8003 18.74 39.9603 22.02H33.1203C33.0003 20.54 32.4003 19.36 31.3203 18.48C30.2403 17.6 28.7803 17.16 26.9403 17.16C25.1403 17.16 23.7603 17.5 22.8003 18.18C21.8403 18.86 21.3603 19.76 21.3603 20.88C21.3603 21.76 21.6803 22.5 22.3203 23.1C22.9603 23.7 23.7403 24.18 24.6603 24.54C25.5803 24.86 26.9403 25.28 28.7403 25.8C31.1403 26.44 33.1003 27.1 34.6203 27.78C36.1803 28.42 37.5203 29.38 38.6403 30.66C39.7603 31.94 40.3403 33.64 40.3803 35.76C40.3803 37.64 39.8603 39.32 38.8203 40.8C37.7803 42.28 36.3003 43.44 34.3803 44.28C32.5003 45.12 30.2803 45.54 27.7203 45.54ZM59.1711 45.54C56.5711 45.54 54.2311 45.08 52.1511 44.16C50.1111 43.2 48.4911 41.92 47.2911 40.32C46.0911 38.68 45.4511 36.86 45.3711 34.86H52.4511C52.5711 36.26 53.2311 37.44 54.4311 38.4C55.6711 39.32 57.2111 39.78 59.0511 39.78C60.9711 39.78 62.4511 39.42 63.4911 38.7C64.5711 37.94 65.1111 36.98 65.1111 35.82C65.1111 34.58 64.5111 33.66 63.3111 33.06C62.1511 32.46 60.2911 31.8 57.7311 31.08C55.2511 30.4 53.2311 29.74 51.6711 29.1C50.1111 28.46 48.7511 27.48 47.5911 26.16C46.4711 24.84 45.9111 23.1 45.9111 20.94C45.9111 19.18 46.4311 17.58 47.4711 16.14C48.5111 14.66 49.9911 13.5 51.9111 12.66C53.8711 11.82 56.1111 11.4 58.6311 11.4C62.3911 11.4 65.4111 12.36 67.6911 14.28C70.0111 16.16 71.2511 18.74 71.4111 22.02H64.5711C64.4511 20.54 63.8511 19.36 62.7711 18.48C61.6911 17.6 60.2311 17.16 58.3911 17.16C56.5911 17.16 55.2111 17.5 54.2511 18.18C53.2911 18.86 52.8111 19.76 52.8111 20.88C52.8111 21.76 53.1311 22.5 53.7711 23.1C54.4111 23.7 55.1911 24.18 56.1111 24.54C57.0311 24.86 58.3911 25.28 60.1911 25.8C62.5911 26.44 64.5511 27.1 66.0711 27.78C67.6311 28.42 68.9711 29.38 70.0911 30.66C71.2111 31.94 71.7911 33.64 71.8311 35.76C71.8311 37.64 71.3111 39.32 70.2711 40.8C69.2311 42.28 67.7511 43.44 65.8311 44.28C63.9511 45.12 61.7311 45.54 59.1711 45.54ZM108.562 11.94V45H101.722V41.1C100.642 42.46 99.2219 43.54 97.4619 44.34C95.7419 45.1 93.9019 45.48 91.9419 45.48C89.3419 45.48 87.0019 44.94 84.9219 43.86C82.8819 42.78 81.2619 41.18 80.0619 39.06C78.9019 36.94 78.3219 34.38 78.3219 31.38V11.94H85.1019V30.36C85.1019 33.32 85.8419 35.6 87.3219 37.2C88.8019 38.76 90.8219 39.54 93.3819 39.54C95.9419 39.54 97.9619 38.76 99.4419 37.2C100.962 35.6 101.722 33.32 101.722 30.36V11.94H108.562ZM147.287 27.66C147.287 28.9 147.207 30.02 147.047 31.02H121.787C121.987 33.66 122.967 35.78 124.727 37.38C126.487 38.98 128.647 39.78 131.207 39.78C134.887 39.78 137.487 38.24 139.007 35.16H146.387C145.387 38.2 143.567 40.7 140.927 42.66C138.327 44.58 135.087 45.54 131.207 45.54C128.047 45.54 125.207 44.84 122.687 43.44C120.207 42 118.247 40 116.807 37.44C115.407 34.84 114.707 31.84 114.707 28.44C114.707 25.04 115.387 22.06 116.747 19.5C118.147 16.9 120.087 14.9 122.567 13.5C125.087 12.1 127.967 11.4 131.207 11.4C134.327 11.4 137.107 12.08 139.547 13.44C141.987 14.8 143.887 16.72 145.247 19.2C146.607 21.64 147.287 24.46 147.287 27.66ZM140.147 25.5C140.107 22.98 139.207 20.96 137.447 19.44C135.687 17.92 133.507 17.16 130.907 17.16C128.547 17.16 126.527 17.92 124.847 19.44C123.167 20.92 122.167 22.94 121.847 25.5H140.147ZM177.958 3.3V8.88H160.258V21.18H174.058V26.76H160.258V45H153.418V3.3H177.958ZM190.537 0.599999V45H183.697V0.599999H190.537ZM213.257 45.54C210.137 45.54 207.317 44.84 204.797 43.44C202.277 42 200.297 40 198.857 37.44C197.417 34.84 196.697 31.84 196.697 28.44C196.697 25.08 197.437 22.1 198.917 19.5C200.397 16.9 202.417 14.9 204.977 13.5C207.537 12.1 210.397 11.4 213.557 11.4C216.717 11.4 219.577 12.1 222.137 13.5C224.697 14.9 226.717 16.9 228.197 19.5C229.677 22.1 230.417 25.08 230.417 28.44C230.417 31.8 229.657 34.78 228.137 37.38C226.617 39.98 224.537 42 221.897 43.44C219.297 44.84 216.417 45.54 213.257 45.54ZM213.257 39.6C215.017 39.6 216.657 39.18 218.177 38.34C219.737 37.5 220.997 36.24 221.957 34.56C222.917 32.88 223.397 30.84 223.397 28.44C223.397 26.04 222.937 24.02 222.017 22.38C221.097 20.7 219.877 19.44 218.357 18.6C216.837 17.76 215.197 17.34 213.437 17.34C211.677 17.34 210.037 17.76 208.517 18.6C207.037 19.44 205.857 20.7 204.977 22.38C204.097 24.02 203.657 26.04 203.657 28.44C203.657 32 204.557 34.76 206.357 36.72C208.197 38.64 210.497 39.6 213.257 39.6ZM280.979 11.94L270.719 45H263.519L256.859 20.58L250.199 45H242.999L232.679 11.94H239.639L246.539 38.52L253.559 11.94H260.699L267.419 38.4L274.259 11.94H280.979Z" fill="#103482"/>
</svg>
