<svg width="64" height="64" viewBox="0 0 64 64" fill="none" xmlns="http://www.w3.org/2000/svg">
<path d="M31.8 37.2V40.4M22.2 46.8H41.4C42.2487 46.8 43.0626 46.4629 43.6627 45.8627C44.2629 45.2626 44.6 44.4487 44.6 43.6V34C44.6 33.1513 44.2629 32.3374 43.6627 31.7373C43.0626 31.1371 42.2487 30.8 41.4 30.8H22.2C21.3513 30.8 20.5374 31.1371 19.9373 31.7373C19.3371 32.3374 19 33.1513 19 34V43.6C19 44.4487 19.3371 45.2626 19.9373 45.8627C20.5374 46.4629 21.3513 46.8 22.2 46.8ZM38.2 30.8V24.4C38.2 22.7026 37.5257 21.0747 36.3255 19.8745C35.1253 18.6743 33.4974 18 31.8 18C30.1026 18 28.4747 18.6743 27.2745 19.8745C26.0743 21.0747 25.4 22.7026 25.4 24.4V30.8H38.2Z" stroke="#1A56D9" stroke-width="3" stroke-linecap="round" stroke-linejoin="round"/>
<circle cx="32" cy="32" r="30.5" stroke="#1A56D9" stroke-width="3"/>
</svg>
