<svg width="68" height="68" viewBox="0 0 68 68" fill="none" xmlns="http://www.w3.org/2000/svg">
<path fill-rule="evenodd" clip-rule="evenodd" d="M32.9171 20.9383C35.8818 20.638 38.591 22.6395 39.184 25.5681C39.3434 26.3552 40.1087 26.8637 40.8935 26.7039C41.6783 26.544 42.1854 25.7764 42.026 24.9894C41.1366 20.5965 37.0727 17.5942 32.6257 18.0447C28.165 18.4965 24.8 22.3654 24.8 26.7329V31.0955H23.35C20.9476 31.0955 19 33.0487 19 35.4581V45.6374C19 48.0468 20.9476 50 23.35 50H43.65C46.0524 50 48 48.0468 48 45.6374V35.4581C48 33.0487 46.0524 31.0955 43.65 31.0955H40.6085L40.605 31.0955H27.7V26.7329C27.7 23.8297 29.966 21.2373 32.9171 20.9383ZM21.9 35.4581C21.9 34.655 22.5492 34.0039 23.35 34.0039H43.65C44.4508 34.0039 45.1 34.655 45.1 35.4581V45.6374C45.1 46.4406 44.4508 47.0916 43.65 47.0916H23.35C22.5492 47.0916 21.9 46.4406 21.9 45.6374V35.4581Z" fill="#1A56D9"/>
<circle cx="34" cy="34" r="30.5" stroke="#1A56D9" stroke-width="3"/>
</svg>
