<svg width="17" height="15" viewBox="0 0 17 15" fill="none" xmlns="http://www.w3.org/2000/svg">
<path d="M4.60347 2.24598C6.94377 0.955558 9.85542 1.36855 11.7446 3.25889C11.7499 3.26425 11.7554 3.26954 11.7609 3.27474L13.8935 5.24872H11.2475C10.8333 5.24872 10.4975 5.5845 10.4975 5.99872C10.4975 6.41293 10.8333 6.74872 11.2475 6.74872H15.7475C16.1617 6.74872 16.4975 6.41293 16.4975 5.99872V1.49872C16.4975 1.0845 16.1617 0.748718 15.7475 0.748718C15.3333 0.748718 14.9975 1.0845 14.9975 1.49872V4.22678L12.7973 2.19033C10.4357 -0.165555 6.80117 -0.678724 3.87919 0.932428C0.953802 2.54546 -0.552082 5.89885 0.185862 9.15694C0.923806 12.415 3.72766 14.7923 7.06257 14.9874C10.3975 15.1825 13.4594 13.1484 14.5722 9.99856C14.7102 9.60801 14.5055 9.17954 14.1149 9.04156C13.7243 8.90358 13.2959 9.10833 13.1579 9.49889C12.2676 12.0187 9.81811 13.646 7.15018 13.4899C4.48224 13.3339 2.23916 11.4321 1.64881 8.82559C1.05845 6.21912 2.26316 3.5364 4.60347 2.24598Z" fill="currentColor"/>
</svg>
