<svg width="24" height="24" viewBox="0 0 24 24" fill="none" xmlns="http://www.w3.org/2000/svg">
<path fill-rule="evenodd" clip-rule="evenodd" d="M11.8889 12.6185H11.9209C14.8489 12.6185 17.2299 10.2375 17.2299 7.30951C17.2299 4.38151 14.8489 1.99951 11.9209 1.99951C8.99189 1.99951 6.60989 4.38151 6.60989 7.30651C6.59989 10.2265 8.9669 12.6095 11.8889 12.6185ZM8.03789 7.30951C8.03789 5.16851 9.77989 3.42751 11.9209 3.42751C14.0609 3.42751 15.8019 5.16851 15.8019 7.30951C15.8019 9.44951 14.0609 11.1915 11.9209 11.1915H11.8919C9.75989 11.1835 8.03089 9.44351 8.03789 7.30951Z" fill="#081A41"/>
<path fill-rule="evenodd" clip-rule="evenodd" d="M3.99988 18.1728C3.99988 21.8699 9.96188 21.8699 11.9209 21.8699C15.3199 21.8699 19.8399 21.4888 19.8399 18.1929C19.8399 14.4958 13.8799 14.4958 11.9209 14.4958C8.52088 14.4958 3.99988 14.8769 3.99988 18.1728ZM5.49988 18.1728C5.49988 16.7278 7.65988 15.9958 11.9209 15.9958C16.1809 15.9958 18.3399 16.7348 18.3399 18.1929C18.3399 19.6378 16.1809 20.3699 11.9209 20.3699C7.65988 20.3699 5.49988 19.6308 5.49988 18.1728Z" fill="#081A41"/>
</svg>
