<svg width="65" height="65" viewBox="0 0 65 65" fill="none" xmlns="http://www.w3.org/2000/svg">
<circle cx="32.5" cy="32.5" r="32.5" fill="#1A56D9" fill-opacity="0.4"/>
<path d="M25 40H26.425L36.2 30.225L34.775 28.8L25 38.575V40ZM23 42V37.75L36.2 24.575C36.4 24.3917 36.6208 24.25 36.8625 24.15C37.1042 24.05 37.3583 24 37.625 24C37.8917 24 38.15 24.05 38.4 24.15C38.65 24.25 38.8667 24.4 39.05 24.6L40.425 26C40.625 26.1833 40.7708 26.4 40.8625 26.65C40.9542 26.9 41 27.15 41 27.4C41 27.6667 40.9542 27.9208 40.8625 28.1625C40.7708 28.4042 40.625 28.625 40.425 28.825L27.25 42H23ZM35.475 29.525L34.775 28.8L36.2 30.225L35.475 29.525Z" fill="#103482"/>
</svg>
