<svg width="20" height="20" viewBox="0 0 20 20" fill="none" xmlns="http://www.w3.org/2000/svg">
<path fill-rule="evenodd" clip-rule="evenodd" d="M10 1.5C5.313 1.5 1.5 5.313 1.5 10C1.5 14.687 5.313 18.5 10 18.5C14.687 18.5 18.5 14.687 18.5 10C18.5 5.313 14.687 1.5 10 1.5ZM10 20C4.486 20 0 15.514 0 10C0 4.486 4.486 0 10 0C15.514 0 20 4.486 20 10C20 15.514 15.514 20 10 20Z" fill="#081A41"/>
<path fill-rule="evenodd" clip-rule="evenodd" d="M9.99408 11.3731C9.58008 11.3731 9.24408 11.0371 9.24408 10.6231V6.2041C9.24408 5.7901 9.58008 5.4541 9.99408 5.4541C10.4081 5.4541 10.7441 5.7901 10.7441 6.2041V10.6231C10.7441 11.0371 10.4081 11.3731 9.99408 11.3731Z" fill="#081A41"/>
<path fill-rule="evenodd" clip-rule="evenodd" d="M10.0039 14.7959C9.4509 14.7959 8.9989 14.3489 8.9989 13.7959C8.9989 13.2429 9.4419 12.7959 9.9939 12.7959H10.0039C10.5569 12.7959 11.0039 13.2429 11.0039 13.7959C11.0039 14.3489 10.5569 14.7959 10.0039 14.7959Z" fill="#081A41"/>
</svg>
