<svg width="24" height="24" viewBox="0 0 24 24" fill="none" xmlns="http://www.w3.org/2000/svg">
<path fill-rule="evenodd" clip-rule="evenodd" d="M8.66667 12C8.66667 10.1591 10.1591 8.66667 12 8.66667C13.8409 8.66667 15.3333 10.1591 15.3333 12C15.3333 13.8409 13.8409 15.3333 12 15.3333C10.1591 15.3333 8.66667 13.8409 8.66667 12ZM12 10.3333C11.0795 10.3333 10.3333 11.0795 10.3333 12C10.3333 12.9205 11.0795 13.6667 12 13.6667C12.9205 13.6667 13.6667 12.9205 13.6667 12C13.6667 11.0795 12.9205 10.3333 12 10.3333Z" fill="#192839"/>
<path fill-rule="evenodd" clip-rule="evenodd" d="M12 3.66667C11.5398 3.66667 11.1667 4.03976 11.1667 4.5V4.64499C11.1632 5.52517 10.6373 6.31922 9.82828 6.66595C9.75786 6.69613 9.68379 6.71638 9.60816 6.72628C8.82063 7.00239 7.93762 6.81122 7.33395 6.22072L7.32737 6.21429L7.27741 6.16426C7.1211 6.00777 6.90867 5.91952 6.6875 5.91952C6.46633 5.91952 6.25422 6.00745 6.09792 6.16393L6.09726 6.16458C5.94078 6.32089 5.85286 6.53299 5.85286 6.75417C5.85286 6.97534 5.94078 7.18744 6.09726 7.34375L6.15409 7.40058C6.77921 8.03965 6.95677 8.99182 6.60621 9.81231C6.2869 10.6497 5.49223 11.2121 4.59449 11.2331L4.575 11.2333H4.5C4.03976 11.2333 3.66667 11.6064 3.66667 12.0667C3.66667 12.5269 4.03976 12.9 4.5 12.9H4.64499C5.52367 12.9035 6.31652 13.4276 6.66418 14.2343C7.02631 15.0593 6.85095 16.0218 6.22072 16.6661L6.21429 16.6726L6.16426 16.7226C6.00778 16.8789 5.91952 17.0913 5.91952 17.3125C5.91952 17.5337 6.00745 17.7458 6.16393 17.9021L6.16458 17.9027C6.32089 18.0592 6.53299 18.1471 6.75417 18.1471C6.97534 18.1471 7.18744 18.0592 7.34375 17.9027L7.40058 17.8459C8.03965 17.2208 8.99182 17.0432 9.81231 17.3938C10.6498 17.7131 11.2121 18.5078 11.2331 19.4055L11.2333 19.425V19.5C11.2333 19.9602 11.6064 20.3333 12.0667 20.3333C12.5269 20.3333 12.9 19.9602 12.9 19.5V19.3583L12.9 19.355C12.9035 18.4763 13.4276 17.6834 14.2344 17.3358C15.0593 16.9737 16.0218 17.1491 16.6661 17.7793L16.6726 17.7857L16.7226 17.8357C16.8789 17.9922 17.0913 18.0805 17.3125 18.0805C17.5337 18.0805 17.7458 17.9926 17.9021 17.8361L17.9027 17.8354C18.0592 17.6791 18.1471 17.467 18.1471 17.2458C18.1471 17.0247 18.0592 16.8126 17.9027 16.6562L17.8459 16.5994C17.2157 15.9552 17.0404 14.9927 17.4024 14.1677C17.7501 13.361 18.543 12.8368 19.4217 12.8333L19.425 12.8333L19.5 12.8333C19.9602 12.8333 20.3333 12.4602 20.3333 12C20.3333 11.5398 19.9602 11.1667 19.5 11.1667H19.3583L19.355 11.1667C18.4748 11.1631 17.6808 10.6373 17.334 9.82828C17.3039 9.75786 17.2836 9.68379 17.2737 9.60816C16.9976 8.82063 17.1888 7.93761 17.7793 7.33395L17.7857 7.32738L17.8357 7.27741C17.9922 7.12111 18.0805 6.90867 18.0805 6.6875C18.0805 6.46633 17.9926 6.25422 17.8361 6.09792L17.8354 6.09726C17.6791 5.94078 17.467 5.85286 17.2458 5.85286C17.0247 5.85286 16.8126 5.94078 16.6562 6.09726L16.5994 6.15409C15.9551 6.78432 14.9926 6.95965 14.1676 6.59751C13.3609 6.24985 12.8368 5.45701 12.8333 4.57832L12.8333 4.575V4.5C12.8333 4.03976 12.4602 3.66667 12 3.66667ZM9.5 4.5C9.5 3.11929 10.6193 2 12 2C13.3807 2 14.5 3.11929 14.5 4.5V4.57292C14.5013 4.78832 14.6302 4.9825 14.8283 5.06738L14.8365 5.0709C15.038 5.15983 15.2731 5.11791 15.4314 4.96509L15.4771 4.91941C15.946 4.44996 16.5823 4.18619 17.2458 4.18619C17.9094 4.18619 18.5457 4.44996 19.0146 4.91941C19.4836 5.38826 19.7471 6.02428 19.7471 6.6875C19.7471 7.35087 19.4835 7.98703 19.0143 8.45592L18.9683 8.50193C18.8154 8.6602 18.7735 8.89536 18.8624 9.09686C18.8859 9.15024 18.9038 9.2058 18.9157 9.26261C19.0146 9.40832 19.18 9.49887 19.3604 9.5H19.5C20.8807 9.5 22 10.6193 22 12C22 13.3807 20.8807 14.5 19.5 14.5H19.4271C19.2117 14.5013 19.0175 14.6302 18.9326 14.8283L18.9291 14.8365C18.8402 15.038 18.8821 15.2731 19.0349 15.4314L19.0806 15.4771C19.5498 15.946 19.8138 16.5825 19.8138 17.2458C19.8138 17.9092 19.5502 18.5454 19.0809 19.0143C18.612 19.4835 17.9759 19.7471 17.3125 19.7471C16.6491 19.7471 16.013 19.4835 15.5441 19.0143L15.498 18.9682C15.3398 18.8154 15.1046 18.7735 14.9031 18.8624L14.895 18.866C14.6969 18.9509 14.568 19.145 14.5667 19.3604V19.5C14.5667 20.8807 13.4474 22 12.0667 22C10.686 22 9.56667 20.8807 9.56667 19.5V19.437C9.55851 19.2177 9.41874 19.0247 9.21235 18.9488C9.19587 18.9427 9.17959 18.9361 9.16353 18.9291C8.96203 18.8401 8.72686 18.8821 8.56859 19.0349L8.52292 19.0806C8.05403 19.5498 7.41754 19.8138 6.75417 19.8138C6.09095 19.8138 5.45493 19.5503 4.98607 19.0813C4.51663 18.6123 4.25286 17.976 4.25286 17.3125C4.25286 16.649 4.51663 16.0127 4.98607 15.5437L5.03176 15.4981C5.18458 15.3398 5.22654 15.1046 5.13761 14.9031L5.13401 14.895C5.04912 14.6969 4.85498 14.568 4.63958 14.5667H4.5C3.11929 14.5667 2 13.4474 2 12.0667C2 10.686 3.11929 9.56667 4.5 9.56667H4.56304C4.7823 9.55851 4.97531 9.41874 5.05122 9.21235C5.05728 9.19587 5.06386 9.17959 5.07095 9.16353C5.15988 8.96203 5.11791 8.72687 4.96508 8.56859L4.91941 8.52292C4.44996 8.054 4.18619 7.41769 4.18619 6.75417C4.18619 6.0908 4.44984 5.45463 4.91908 4.98574C5.38797 4.51651 6.02413 4.25286 6.6875 4.25286C7.35102 4.25286 7.98733 4.51663 8.45625 4.98607L8.50193 5.03175C8.6602 5.18458 8.89536 5.22654 9.09686 5.13761C9.15025 5.11405 9.20581 5.09623 9.26262 5.08434C9.40833 4.98544 9.49887 4.81995 9.5 4.63958V4.5Z" fill="#192839"/>
</svg>
