<svg width="24" height="24" viewBox="0 0 24 24" fill="none" xmlns="http://www.w3.org/2000/svg">
<path fill-rule="evenodd" clip-rule="evenodd" d="M15.7158 16.9736H8.4958C8.0818 16.9736 7.7458 16.6376 7.7458 16.2236C7.7458 15.8096 8.0818 15.4736 8.4958 15.4736H15.7158C16.1298 15.4736 16.4658 15.8096 16.4658 16.2236C16.4658 16.6376 16.1298 16.9736 15.7158 16.9736Z" fill="#081A41"/>
<path fill-rule="evenodd" clip-rule="evenodd" d="M15.7158 12.7871H8.4958C8.0818 12.7871 7.7458 12.4511 7.7458 12.0371C7.7458 11.6231 8.0818 11.2871 8.4958 11.2871H15.7158C16.1298 11.2871 16.4658 11.6231 16.4658 12.0371C16.4658 12.4511 16.1298 12.7871 15.7158 12.7871Z" fill="#081A41"/>
<path fill-rule="evenodd" clip-rule="evenodd" d="M11.2505 8.61035H8.4955C8.0815 8.61035 7.7455 8.27435 7.7455 7.86035C7.7455 7.44635 8.0815 7.11035 8.4955 7.11035H11.2505C11.6645 7.11035 12.0005 7.44635 12.0005 7.86035C12.0005 8.27435 11.6645 8.61035 11.2505 8.61035Z" fill="#081A41"/>
<mask id="mask0_2618_4575" style="mask-type:luminance" maskUnits="userSpaceOnUse" x="3" y="2" width="19" height="20">
<path fill-rule="evenodd" clip-rule="evenodd" d="M3 2H21.1647V21.9098H3V2Z" fill="white"/>
</mask>
<g mask="url(#mask0_2618_4575)">
<path fill-rule="evenodd" clip-rule="evenodd" d="M15.9087 3.5L8.2197 3.504C5.8917 3.518 4.4997 4.958 4.4997 7.357V16.553C4.4997 18.968 5.9047 20.41 8.2557 20.41L15.9447 20.407C18.2727 20.393 19.6647 18.951 19.6647 16.553V7.357C19.6647 4.942 18.2607 3.5 15.9087 3.5ZM8.2567 21.91C5.1127 21.91 2.9997 19.757 2.9997 16.553V7.357C2.9997 4.124 5.0467 2.023 8.2147 2.004L15.9077 2H15.9087C19.0527 2 21.1647 4.153 21.1647 7.357V16.553C21.1647 19.785 19.1177 21.887 15.9497 21.907L8.2567 21.91Z" fill="#081A41"/>
</g>
</svg>
