<svg width="24" height="22" viewBox="0 0 24 22" fill="none" xmlns="http://www.w3.org/2000/svg">
<g filter="url(#filter0_d_2929_2624)">
<path d="M15.6667 1V3.57143M15.6667 8.71429V11.2857M15.6667 16.4286V19M3.44444 1C2.79614 1 2.17438 1.27092 1.71596 1.75315C1.25754 2.23539 1 2.88944 1 3.57143V7.42857C1.64831 7.42857 2.27006 7.69949 2.72848 8.18173C3.18691 8.66396 3.44444 9.31801 3.44444 10C3.44444 10.682 3.18691 11.336 2.72848 11.8183C2.27006 12.3005 1.64831 12.5714 1 12.5714V16.4286C1 17.1106 1.25754 17.7646 1.71596 18.2468C2.17438 18.7291 2.79614 19 3.44444 19H20.5556C21.2039 19 21.8256 18.7291 22.284 18.2468C22.7425 17.7646 23 17.1106 23 16.4286V12.5714C22.3517 12.5714 21.7299 12.3005 21.2715 11.8183C20.8131 11.336 20.5556 10.682 20.5556 10C20.5556 9.31801 20.8131 8.66396 21.2715 8.18173C21.7299 7.69949 22.3517 7.42857 23 7.42857V3.57143C23 2.88944 22.7425 2.23539 22.284 1.75315C21.8256 1.27092 21.2039 1 20.5556 1H3.44444Z" stroke="currentColor" stroke-width="2" stroke-linecap="round" stroke-linejoin="round" shape-rendering="crispEdges"/>
</g>
<defs>
<filter id="filter0_d_2929_2624" x="-4" y="0" width="32" height="28" filterUnits="userSpaceOnUse" color-interpolation-filters="sRGB">
<feFlood flood-opacity="0" result="BackgroundImageFix"/>
<feColorMatrix in="SourceAlpha" type="matrix" values="0 0 0 0 0 0 0 0 0 0 0 0 0 0 0 0 0 0 127 0" result="hardAlpha"/>
<feOffset dy="4"/>
<feGaussianBlur stdDeviation="2"/>
<feComposite in2="hardAlpha" operator="out"/>
<feColorMatrix type="matrix" values="0 0 0 0 0 0 0 0 0 0 0 0 0 0 0 0 0 0 0.25 0"/>
<feBlend mode="normal" in2="BackgroundImageFix" result="effect1_dropShadow_2929_2624"/>
<feBlend mode="normal" in="SourceGraphic" in2="effect1_dropShadow_2929_2624" result="shape"/>
</filter>
</defs>
</svg>
