<svg width="24" height="24" viewBox="0 0 24 24" fill="none" xmlns="http://www.w3.org/2000/svg">
<path d="M15.6667 3V5.57143M15.6667 10.7143V13.2857M15.6667 18.4286V21M3.44444 3C2.79614 3 2.17438 3.27092 1.71596 3.75315C1.25754 4.23539 1 4.88944 1 5.57143V9.42857C1.64831 9.42857 2.27006 9.69949 2.72848 10.1817C3.18691 10.664 3.44444 11.318 3.44444 12C3.44444 12.682 3.18691 13.336 2.72848 13.8183C2.27006 14.3005 1.64831 14.5714 1 14.5714V18.4286C1 19.1106 1.25754 19.7646 1.71596 20.2468C2.17438 20.7291 2.79614 21 3.44444 21H20.5556C21.2039 21 21.8256 20.7291 22.284 20.2468C22.7425 19.7646 23 19.1106 23 18.4286V14.5714C22.3517 14.5714 21.7299 14.3005 21.2715 13.8183C20.8131 13.336 20.5556 12.682 20.5556 12C20.5556 11.318 20.8131 10.664 21.2715 10.1817C21.7299 9.69949 22.3517 9.42857 23 9.42857V5.57143C23 4.88944 22.7425 4.23539 22.284 3.75315C21.8256 3.27092 21.2039 3 20.5556 3H3.44444Z" stroke="#8CABEC" stroke-width="1.5" stroke-linecap="round" stroke-linejoin="round"/>
</svg>
